<?xml version="1.0" encoding="UTF-8"?>
<svg width="83px" height="77px" viewBox="0 0 83 77" version="1.1" xmlns="http://www.w3.org/2000/svg" xmlns:xlink="http://www.w3.org/1999/xlink">
    <!-- Generator: Sketch 47.1 (45422) - http://www.bohemiancoding.com/sketch -->
    <title>Group 6</title>
    <desc>Created with Sketch.</desc>
    <defs></defs>
    <g id="Ant-Design-Pro-3.0" stroke="none" stroke-width="1" fill="none" fill-rule="evenodd">
        <g id="任务为空" transform="translate(-1157.000000, -169.000000)">
            <g id="Group-26-Copy" transform="translate(1031.000000, 44.000000)">
                <g id="Group-6" transform="translate(126.000000, 126.000000)">
                    <path d="M78.624,12.0568323 L78.624,10.6970825 L78.624,10.6970825 C78.624,9.95481184 79.2257293,9.35308255 79.968,9.35308255 C80.1768025,9.35308255 80.3827331,9.40173282 80.5694602,9.49517507 L81.9280649,10.1750499 L81.9280649,10.1750499 C82.5918601,10.5072273 82.8606895,11.3146225 82.5285122,11.9784177 C82.3985128,12.2381974 82.1878447,12.4488655 81.9280649,12.5788649 L80.5694602,13.2587398 L80.5694602,13.2587398 C79.9056651,13.5909171 79.0982698,13.3220877 78.7660925,12.6582925 C78.6726503,12.4715654 78.624,12.2656348 78.624,12.0568323 Z" id="Triangle-36" fill-opacity="0.4" fill="#A3B1BF"></path>
                    <ellipse id="Oval-203" stroke-opacity="0.4" stroke="#A3B1BF" stroke-width="2.016" cx="18.144" cy="2.69026549" rx="2.688" ry="2.69026549"></ellipse>
                    <path d="M77.876704,46.8803671 L76.011296,46.8803671 L76.011296,46.8803671 C75.5985758,46.8803671 75.264,47.2149429 75.264,47.6276631 C75.264,48.0403832 75.5985758,48.374959 76.011296,48.374959 L77.876704,48.374959 L77.876704,50.3649164 C77.876704,50.7776366 78.2112798,51.1122124 78.624,51.1122124 L78.624,51.1122124 L78.624,51.1122124 C79.0367202,51.1122124 79.371296,50.7776366 79.371296,50.3649164 L79.371296,50.3649164 L79.371296,48.374959 L81.236704,48.374959 C81.6494242,48.374959 81.984,48.0403832 81.984,47.6276631 L81.984,47.6276631 C81.984,47.2149429 81.6494242,46.8803671 81.236704,46.8803671 L81.236704,46.8803671 L79.371296,46.8803671 L79.371296,45.1395084 L79.371296,45.1395084 C79.371296,44.7267882 79.0367202,44.3922124 78.624,44.3922124 C78.2112798,44.3922124 77.876704,44.7267882 77.876704,45.1395084 L77.876704,46.8803671 Z" id="Combined-Shape" fill-opacity="0.4" fill="#A3B1BF"></path>
                    <path d="M2.61270403,35.4467388 L0.747295969,35.4467388 L0.747295969,35.4467388 C0.334575802,35.4467388 -5.05436431e-17,35.7813146 0,36.1940347 C5.05436431e-17,36.6067549 0.334575802,36.9413307 0.747295969,36.9413307 L2.61270403,36.9413307 L2.61270403,38.9312881 C2.61270403,39.3440083 2.94727983,39.6785841 3.36,39.6785841 C3.77272017,39.6785841 4.10729597,39.3440083 4.10729597,38.9312881 L4.10729597,38.9312881 L4.10729597,36.9413307 L5.97270403,36.9413307 C6.3854242,36.9413307 6.72,36.6067549 6.72,36.1940347 L6.72,36.1940347 L6.72,36.1940347 C6.72,35.7813146 6.3854242,35.4467388 5.97270403,35.4467388 L5.97270403,35.4467388 L4.10729597,35.4467388 L4.10729597,33.70588 L4.10729597,33.70588 C4.10729597,33.2931599 3.77272017,32.9585841 3.36,32.9585841 C2.94727983,32.9585841 2.61270403,33.2931599 2.61270403,33.70588 L2.61270403,35.4467388 Z" id="Combined-Shape-Copy" fill-opacity="0.4" fill="#A3B1BF"></path>
                    <ellipse id="Oval-4" fill-opacity="0.25" fill="#A3B1BF" cx="44.352" cy="73.5587663" rx="21.504" ry="2.01769912"></ellipse>
                    <path d="M69.198,15.7660988 L59.298,15.7660988 L59.298,12.6134439 C59.298,10.3728071 57.48675,8.56003054 55.248,8.56003054 L34.9755,8.56003054 C34.7505,6.53332384 33.034875,4.95699641 30.948,4.95699641 L26.898,4.95699641 C24.65925,4.95699641 22.848,6.76977296 22.848,9.01040981 L22.848,51.3460609 C22.848,53.5866977 24.65925,55.3994743 26.898,55.3994743 L30.948,55.3994743 C33.18675,55.3994743 34.998,53.5866977 34.998,51.3460609 L34.998,36.9339244 L55.248,36.9339244 L55.248,40.0865792 C55.248,42.3272161 57.05925,44.1399926 59.298,44.1399926 L69.198,44.1399926 C71.43675,44.1399926 73.248,42.3272161 73.248,40.0865792 L73.248,19.8195122 C73.248,17.5788754 71.43675,15.7660988 69.198,15.7660988 Z M30.948,51.3460609 L26.898,51.3460609 L26.898,9.01040981 L30.948,9.01040981 L30.948,51.3460609 Z M55.248,32.8805109 L34.998,32.8805109 L34.998,12.6134439 L55.248,12.6134439 L55.248,32.8805109 Z M69.198,40.0865792 L59.298,40.0865792 L59.298,19.8195122 L69.198,19.8195122 L69.198,40.0865792 Z" id="Shape" fill-opacity="0.4" fill="#A3B1BF" fill-rule="nonzero"></path>
                </g>
            </g>
        </g>
    </g>
</svg>