<?xml version="1.0" encoding="UTF-8"?>
<svg width="87px" height="83px" viewBox="0 0 87 83" version="1.1" xmlns="http://www.w3.org/2000/svg" xmlns:xlink="http://www.w3.org/1999/xlink">
    <!-- Generator: Sketch 47.1 (45422) - http://www.bohemiancoding.com/sketch -->
    <title>Group 6</title>
    <desc>Created with Sketch.</desc>
    <defs></defs>
    <g id="Ant-Design-Pro-3.0" stroke="none" stroke-width="1" fill="none" fill-rule="evenodd">
        <g id="消息为空" transform="translate(-1155.000000, -163.000000)">
            <g id="Group-26-Copy" transform="translate(1031.000000, 44.000000)">
                <g id="Group-6" transform="translate(124.000000, 120.000000)">
                    <path d="M82.7851852,20.5337889 L82.7851852,19.2238049 L82.7851852,19.2238049 C82.7851852,18.5037892 83.3688732,17.9201011 84.0888889,17.9201011 C84.2909964,17.9201011 84.4903362,17.9670906 84.6711654,18.0573583 L85.9832794,18.7123504 L85.9832794,18.7123504 C86.6274901,19.0339328 86.8890319,19.8168627 86.5674495,20.4610733 C86.4412034,20.7139761 86.2361822,20.9189973 85.9832794,21.0452434 L84.6711654,21.7002354 L84.6711654,21.7002354 C84.0269547,22.0218178 83.2440248,21.760276 82.9224424,21.1160653 C82.8321746,20.9352362 82.7851852,20.7358964 82.7851852,20.5337889 Z" id="Triangle-36" fill-opacity="0.4" fill="#A3B1BF"></path>
                    <ellipse id="Oval-203" stroke-opacity="0.4" stroke="#A3B1BF" stroke-width="1.95555556" cx="17.6" cy="2.6031746" rx="2.60740741" ry="2.6031746"></ellipse>
                    <path d="M82.0620811,53.8230453 L80.24903,53.8230453 L80.24903,53.8230453 C79.8496706,53.8230453 79.5259259,54.14679 79.5259259,54.5461493 C79.5259259,54.9455087 79.8496706,55.2692534 80.24903,55.2692534 L82.0620811,55.2692534 L82.0620811,57.2028219 C82.0620811,57.6021812 82.3858258,57.9259259 82.7851852,57.9259259 L82.7851852,57.9259259 C83.1845445,57.9259259 83.5082892,57.6021812 83.5082892,57.2028219 L83.5082892,57.2028219 L83.5082892,55.2692534 L85.3213404,55.2692534 C85.7206997,55.2692534 86.0444444,54.9455087 86.0444444,54.5461493 C86.0444444,54.14679 85.7206997,53.8230453 85.3213404,53.8230453 L83.5082892,53.8230453 L83.5082892,52.1305115 L83.5082892,52.1305115 C83.5082892,51.7311521 83.1845445,51.4074074 82.7851852,51.4074074 C82.3858258,51.4074074 82.0620811,51.7311521 82.0620811,52.1305115 L82.0620811,53.8230453 Z" id="Combined-Shape" fill-opacity="0.4" fill="#A3B1BF"></path>
                    <path d="M2.5361552,42.7595532 L0.723104056,42.7595532 L0.723104056,42.7595532 C0.323744714,42.7595532 -4.89074141e-17,43.0832979 0,43.4826573 C4.89074141e-17,43.8820166 0.323744714,44.2057613 0.723104056,44.2057613 L2.5361552,44.2057613 L2.5361552,46.1393298 C2.5361552,46.5386891 2.85989992,46.8624339 3.25925926,46.8624339 L3.25925926,46.8624339 C3.6586186,46.8624339 3.98236332,46.5386891 3.98236332,46.1393298 L3.98236332,46.1393298 L3.98236332,44.2057613 L5.79541446,44.2057613 C6.1947738,44.2057613 6.51851852,43.8820166 6.51851852,43.4826573 C6.51851852,43.0832979 6.1947738,42.7595532 5.79541446,42.7595532 L3.98236332,42.7595532 L3.98236332,41.0670194 L3.98236332,41.0670194 C3.98236332,40.6676601 3.6586186,40.3439153 3.25925926,40.3439153 C2.85989992,40.3439153 2.5361552,40.6676601 2.5361552,41.0670194 L2.5361552,42.7595532 Z" id="Combined-Shape-Copy" fill-opacity="0.4" fill="#A3B1BF"></path>
                    <ellipse id="Oval-4" fill-opacity="0.25" fill="#A3B1BF" cx="49.5407407" cy="80.047619" rx="20.8592593" ry="1.95238095"></ellipse>
                    <path d="M71.6866074,29.4965409 L68.5468032,29.4965409 L68.5468032,28.4988753 C68.5468032,26.9683656 67.3796508,25.7212837 65.9494782,25.7212837 L56.5081472,25.7212837 C56.1136168,24.9390232 55.5218212,24.3721677 54.7108421,24.3721677 C40.9461157,24.3721677 28.5786844,12.0373933 28.5786844,12.0373933 C28.1786744,11.8163197 27.7622257,11.7142857 27.3567362,11.7142857 C26.0032778,11.7142857 24.7703704,12.8366595 24.7703704,14.3898434 L24.7703704,59.8006328 C24.7703704,61.3651538 26.0087574,62.4761905 27.3567362,62.4761905 C27.7951032,62.4761905 28.2499091,62.3571508 28.6718374,62.0963973 C28.6718374,62.0963973 40.0967795,47.3354816 54.8697502,47.3354816 C55.6259334,47.3354816 56.1684127,46.8083061 56.5300655,46.0770626 L56.7547286,46.0770626 C56.8314429,49.4952009 56.0588209,53.1344128 55.3409948,55.7589535 C54.9245461,57.2837946 55.5053825,58.8879955 56.7876062,59.7552844 C57.3684426,60.1464146 58.0314728,60.344814 58.6890234,60.344814 C59.4780841,60.344814 60.2616653,60.0613863 60.9082567,59.5115365 C64.700132,56.2521177 66.1193454,52.5052033 66.6453859,49.9373481 C66.9741612,48.3331472 67.0015592,46.9783627 66.9632021,46.0827311 C67.1604673,45.8219776 67.3467733,45.5385499 67.5275997,45.2551222 C68.5522827,43.6282471 68.5522827,42.9990375 68.5522827,42.6986041 L68.5522827,41.4175108 L71.6866074,41.4175108 C72.7770455,41.4175108 73.6592593,40.5048736 73.6592593,39.3768312 L73.6592593,31.5372205 C73.6592593,30.4091782 72.7770455,29.4965409 71.6866074,29.4965409 Z M53.1765573,43.310808 C49.8175696,43.5318816 46.4037859,44.3935019 43.0009614,45.8843317 C39.9159531,47.2391162 36.8364243,49.1154077 33.844569,51.4621893 C31.7842437,53.0777273 30.0526937,54.6932653 28.7101945,56.0537183 L28.7101945,17.5302225 C30.1568059,18.720619 32.0965802,20.2001117 34.3980074,21.6739358 C37.4227403,23.6125814 40.4748711,25.1657653 43.472206,26.2824706 C46.7709183,27.5125469 50.0148347,28.2267847 53.1382002,28.4081785 L53.1382002,28.5045439 C53.1382002,28.6349206 53.1491594,28.7596288 53.1710777,28.8786685 L53.1710777,43.2484539 C53.1765573,43.2711281 53.1765573,43.2881338 53.1765573,43.310808 Z M64.6014994,42.3584909 C64.4316322,42.7042727 64.0754589,43.2711281 63.861755,43.5545558 C63.6864081,43.6679269 63.5275001,43.8096408 63.3959899,43.9740289 C63.0233779,44.4388503 62.8644698,45.0510542 62.968582,45.6462524 C62.968582,45.6575895 63.1932452,47.1087395 62.7877556,49.0927335 C62.316511,51.4055037 61.2315525,53.4688575 59.560278,55.2487836 C60.3548183,51.9326793 61.0233281,47.6699264 60.5520835,43.781298 C60.426053,42.7609582 59.5876759,41.9957034 58.5958704,41.9957034 L57.1930957,41.9957034 L57.1930957,40.3008056 C57.1930957,40.1137433 57.1656978,39.9323496 57.1218611,39.7622929 L57.1218611,29.8026428 L64.6014994,29.8026428 L64.6014994,42.3584909 Z M69.7139555,37.3361517 L68.5468032,37.3361517 L68.5468032,33.5779001 L69.7139555,33.5779001 L69.7139555,37.3361517 Z" id="Shape" fill-opacity="0.4" fill="#A3B1BF" fill-rule="nonzero"></path>
                </g>
            </g>
        </g>
    </g>
</svg>